<?xml version="1.0" encoding="UTF-8"?>
<!DOCTYPE svg PUBLIC "-//W3C//DTD SVG 1.1//EN" "http://www.w3.org/Graphics/SVG/1.1/DTD/svg11.dtd">
<!-- Creator: CorelDRAW -->
<svg xmlns="http://www.w3.org/2000/svg" xml:space="preserve" width="1463px" height="1463px" version="1.1" style="shape-rendering:geometricPrecision; text-rendering:geometricPrecision; image-rendering:optimizeQuality; fill-rule:evenodd; clip-rule:evenodd"
viewBox="0 0 1463 1463"
 xmlns:xlink="http://www.w3.org/1999/xlink"
 xmlns:xodm="http://www.corel.com/coreldraw/odm/2003">
 <defs>
  <style type="text/css">
   <![CDATA[
    .str0 {stroke:black;stroke-width:2;stroke-miterlimit:2.61313}
    .str1 {stroke:#373435;stroke-width:2.08;stroke-miterlimit:2.61313}
    .fil77 {fill:none}
    .fil75 {fill:#731B75}
    .fil74 {fill:#731B76}
    .fil73 {fill:#741B76}
    .fil72 {fill:#741B77}
    .fil71 {fill:#741B78}
    .fil70 {fill:#751C78}
    .fil69 {fill:#751C79}
    .fil68 {fill:#751C7A}
    .fil67 {fill:#761C7A}
    .fil66 {fill:#761C7B}
    .fil65 {fill:#761C7C}
    .fil64 {fill:#771C7C}
    .fil63 {fill:#771C7D}
    .fil62 {fill:#771C7E}
    .fil61 {fill:#781D7E}
    .fil60 {fill:#781D7F}
    .fil59 {fill:#781D80}
    .fil58 {fill:#791D80}
    .fil57 {fill:#791D81}
    .fil56 {fill:#791D82}
    .fil55 {fill:#7A1D82}
    .fil54 {fill:#7A1D83}
    .fil53 {fill:#7A1D84}
    .fil52 {fill:#7B1E84}
    .fil51 {fill:#7B1E85}
    .fil50 {fill:#7B1E86}
    .fil49 {fill:#7C1E86}
    .fil48 {fill:#7C1E87}
    .fil47 {fill:#7D1E88}
    .fil46 {fill:#7D1E89}
    .fil45 {fill:#7D1E8A}
    .fil44 {fill:#7E1F8A}
    .fil43 {fill:#7E1F8B}
    .fil42 {fill:#7F1F8C}
    .fil41 {fill:#7F1F8D}
    .fil40 {fill:#7F1F8E}
    .fil39 {fill:#801F8E}
    .fil38 {fill:#801F8F}
    .fil37 {fill:#812090}
    .fil36 {fill:#812091}
    .fil35 {fill:#822091}
    .fil34 {fill:#822092}
    .fil33 {fill:#822093}
    .fil32 {fill:#832094}
    .fil31 {fill:#832095}
    .fil30 {fill:#842195}
    .fil29 {fill:#842196}
    .fil28 {fill:#842197}
    .fil27 {fill:#852198}
    .fil26 {fill:#852199}
    .fil25 {fill:#862199}
    .fil24 {fill:#86219A}
    .fil23 {fill:#86219B}
    .fil22 {fill:#87229B}
    .fil21 {fill:#87229C}
    .fil20 {fill:#87229D}
    .fil19 {fill:#88229D}
    .fil18 {fill:#88229E}
    .fil17 {fill:#88229F}
    .fil16 {fill:#89229F}
    .fil15 {fill:#8922A0}
    .fil14 {fill:#8922A1}
    .fil13 {fill:#8A23A1}
    .fil12 {fill:#8A23A2}
    .fil11 {fill:#8A23A3}
    .fil10 {fill:#8B23A3}
    .fil9 {fill:#8B23A4}
    .fil8 {fill:#8B23A5}
    .fil7 {fill:#8C23A5}
    .fil6 {fill:#8C23A6}
    .fil5 {fill:#8C23A7}
    .fil4 {fill:#8D24A7}
    .fil3 {fill:#8D24A8}
    .fil2 {fill:#8D24A9}
    .fil1 {fill:#8E24A9}
    .fil0 {fill:#8E24AA}
    .fil76 {fill:#731B75}
    .fil78 {fill:url(#id1)}
    .fil79 {fill:url(#id2)}
   ]]>
  </style>
    <clipPath id="id0">
     <path d="M0 1086.11c27.47,-18.82 54.26,-44.36 60.86,-187.09 15.99,-345.88 227.72,-737.66 566.28,-799.13 228.28,-32.84 421.52,34.67 614.13,130.03 57.45,28.44 137.82,3.57 198.04,25.01 1.43,28.88 -27.95,45.95 -43.52,76.96 -18.55,36.94 -24.4,88.13 -30.49,126.08 -10.7,66.61 32.77,133.23 56.01,189.04 67.52,162.1 39.3,237.32 10.74,346 -77.48,166.17 -216.38,289.63 -478.84,358.16 -182.79,41.29 -391.61,33.77 -698.15,-157.04 -58.52,-63.6 -124.38,-119.55 -255.06,-108.02z"/>
    </clipPath>
  <linearGradient id="id1" gradientUnits="objectBoundingBox" x1="0%" y1="50%" x2="100%" y2="50%">
   <stop offset="0" style="stop-opacity:1; stop-color:#D4AF37"/>
   <stop offset="1" style="stop-opacity:1; stop-color:#FF6600"/>
  </linearGradient>
  <linearGradient id="id2" gradientUnits="userSpaceOnUse" xlink:href="#id1" x1="1044.89" y1="487.38" x2="1210.86" y2="717.91">
  </linearGradient>
 </defs>
 <g id="Capa_x0020_1">
  <metadata id="CorelCorpID_0Corel-Layer"/>
 </g>
 <g id="Capa_x0020_1_0">
  <metadata id="CorelCorpID_1Corel-Layer"/>
  <g>
   <g style="clip-path:url(#id0)">
    <polygon class="fil0" points="0,67.05 8.57,67.05 8.57,1392.46 0,1392.46 "/>
    <polygon id="_1" class="fil0" points="5.72,67.05 14.29,67.05 14.29,1392.46 5.72,1392.46 "/>
    <polygon id="_2" class="fil0" points="11.43,67.05 20,67.05 20,1392.46 11.43,1392.46 "/>
    <polygon id="_3" class="fil1" points="17.15,67.05 25.72,67.05 25.72,1392.46 17.15,1392.46 "/>
    <polygon id="_4" class="fil1" points="22.86,67.05 31.43,67.05 31.43,1392.46 22.86,1392.46 "/>
    <polygon id="_5" class="fil2" points="28.57,67.05 37.15,67.05 37.15,1392.46 28.57,1392.46 "/>
    <polygon id="_6" class="fil2" points="34.29,67.05 42.86,67.05 42.86,1392.46 34.29,1392.46 "/>
    <polygon id="_7" class="fil2" points="40,67.05 48.58,67.05 48.58,1392.46 40,1392.46 "/>
    <polygon id="_8" class="fil3" points="45.72,67.05 54.29,67.05 54.29,1392.46 45.72,1392.46 "/>
    <polygon id="_9" class="fil3" points="51.43,67.05 60.01,67.05 60.01,1392.46 51.43,1392.46 "/>
    <polygon id="_10" class="fil3" points="57.15,67.05 65.72,67.05 65.72,1392.46 57.15,1392.46 "/>
    <polygon id="_11" class="fil3" points="62.86,67.05 71.44,67.05 71.44,1392.46 62.86,1392.46 "/>
    <polygon id="_12" class="fil3" points="68.58,67.05 77.15,67.05 77.15,1392.46 68.58,1392.46 "/>
    <polygon id="_13" class="fil4" points="74.29,67.05 82.87,67.05 82.87,1392.46 74.29,1392.46 "/>
    <polygon id="_14" class="fil4" points="80.01,67.05 88.58,67.05 88.58,1392.46 80.01,1392.46 "/>
    <polygon id="_15" class="fil5" points="85.72,67.05 94.3,67.05 94.3,1392.46 85.72,1392.46 "/>
    <polygon id="_16" class="fil5" points="91.44,67.05 100.01,67.05 100.01,1392.46 91.44,1392.46 "/>
    <polygon id="_17" class="fil6" points="97.15,67.05 105.72,67.05 105.72,1392.46 97.15,1392.46 "/>
    <polygon id="_18" class="fil6" points="102.87,67.05 111.44,67.05 111.44,1392.46 102.87,1392.46 "/>
    <polygon id="_19" class="fil6" points="108.58,67.05 117.15,67.05 117.15,1392.46 108.58,1392.46 "/>
    <polygon id="_20" class="fil6" points="114.3,67.05 122.87,67.05 122.87,1392.46 114.3,1392.46 "/>
    <polygon id="_21" class="fil6" points="120.01,67.05 128.58,67.05 128.58,1392.46 120.01,1392.46 "/>
    <polygon id="_22" class="fil7" points="125.73,67.05 134.3,67.05 134.3,1392.46 125.73,1392.46 "/>
    <polygon id="_23" class="fil7" points="131.44,67.05 140.01,67.05 140.01,1392.46 131.44,1392.46 "/>
    <polygon id="_24" class="fil8" points="137.16,67.05 145.73,67.05 145.73,1392.46 137.16,1392.46 "/>
    <polygon id="_25" class="fil8" points="142.87,67.05 151.44,67.05 151.44,1392.46 142.87,1392.46 "/>
    <polygon id="_26" class="fil8" points="148.59,67.05 157.16,67.05 157.16,1392.46 148.59,1392.46 "/>
    <polygon id="_27" class="fil9" points="154.3,67.05 162.87,67.05 162.87,1392.46 154.3,1392.46 "/>
    <polygon id="_28" class="fil9" points="160.02,67.05 168.59,67.05 168.59,1392.46 160.02,1392.46 "/>
    <polygon id="_29" class="fil9" points="165.73,67.05 174.3,67.05 174.3,1392.46 165.73,1392.46 "/>
    <polygon id="_30" class="fil9" points="171.45,67.05 180.02,67.05 180.02,1392.46 171.45,1392.46 "/>
    <polygon id="_31" class="fil9" points="177.16,67.05 185.73,67.05 185.73,1392.46 177.16,1392.46 "/>
    <polygon id="_32" class="fil10" points="182.87,67.05 191.45,67.05 191.45,1392.46 182.87,1392.46 "/>
    <polygon id="_33" class="fil10" points="188.59,67.05 197.16,67.05 197.16,1392.46 188.59,1392.46 "/>
    <polygon id="_34" class="fil11" points="194.3,67.05 202.88,67.05 202.88,1392.46 194.3,1392.46 "/>
    <polygon id="_35" class="fil11" points="200.02,67.05 208.59,67.05 208.59,1392.46 200.02,1392.46 "/>
    <polygon id="_36" class="fil11" points="205.73,67.05 214.31,67.05 214.31,1392.46 205.73,1392.46 "/>
    <polygon id="_37" class="fil12" points="211.45,67.05 220.02,67.05 220.02,1392.46 211.45,1392.46 "/>
    <polygon id="_38" class="fil12" points="217.16,67.05 225.74,67.05 225.74,1392.46 217.16,1392.46 "/>
    <polygon id="_39" class="fil12" points="222.88,67.05 231.45,67.05 231.45,1392.46 222.88,1392.46 "/>
    <polygon id="_40" class="fil12" points="228.59,67.05 237.17,67.05 237.17,1392.46 228.59,1392.46 "/>
    <polygon id="_41" class="fil13" points="234.31,67.05 242.88,67.05 242.88,1392.46 234.31,1392.46 "/>
    <polygon id="_42" class="fil13" points="240.02,67.05 248.6,67.05 248.6,1392.46 240.02,1392.46 "/>
    <polygon id="_43" class="fil14" points="245.74,67.05 254.31,67.05 254.31,1392.46 245.74,1392.46 "/>
    <polygon id="_44" class="fil14" points="251.45,67.05 260.03,67.05 260.03,1392.46 251.45,1392.46 "/>
    <polygon id="_45" class="fil14" points="257.17,67.05 265.74,67.05 265.74,1392.46 257.17,1392.46 "/>
    <polygon id="_46" class="fil15" points="262.88,67.05 271.46,67.05 271.46,1392.46 262.88,1392.46 "/>
    <polygon id="_47" class="fil15" points="268.6,67.05 277.17,67.05 277.17,1392.46 268.6,1392.46 "/>
    <polygon id="_48" class="fil15" points="274.31,67.05 282.89,67.05 282.89,1392.46 274.31,1392.46 "/>
    <polygon id="_49" class="fil15" points="280.03,67.05 288.6,67.05 288.6,1392.46 280.03,1392.46 "/>
    <polygon id="_50" class="fil15" points="285.74,67.05 294.31,67.05 294.31,1392.46 285.74,1392.46 "/>
    <polygon id="_51" class="fil16" points="291.46,67.05 300.03,67.05 300.03,1392.46 291.46,1392.46 "/>
    <polygon id="_52" class="fil17" points="297.17,67.05 305.74,67.05 305.74,1392.46 297.17,1392.46 "/>
    <polygon id="_53" class="fil17" points="302.89,67.05 311.46,67.05 311.46,1392.46 302.89,1392.46 "/>
    <polygon id="_54" class="fil17" points="308.6,67.05 317.17,67.05 317.17,1392.46 308.6,1392.46 "/>
    <polygon id="_55" class="fil17" points="314.32,67.05 322.89,67.05 322.89,1392.46 314.32,1392.46 "/>
    <polygon id="_56" class="fil18" points="320.03,67.05 328.6,67.05 328.6,1392.46 320.03,1392.46 "/>
    <polygon id="_57" class="fil18" points="325.75,67.05 334.32,67.05 334.32,1392.46 325.75,1392.46 "/>
    <polygon id="_58" class="fil18" points="331.46,67.05 340.03,67.05 340.03,1392.46 331.46,1392.46 "/>
    <polygon id="_59" class="fil18" points="337.18,67.05 345.75,67.05 345.75,1392.46 337.18,1392.46 "/>
    <polygon id="_60" class="fil18" points="342.89,67.05 351.46,67.05 351.46,1392.46 342.89,1392.46 "/>
    <polygon id="_61" class="fil19" points="348.61,67.05 357.18,67.05 357.18,1392.46 348.61,1392.46 "/>
    <polygon id="_62" class="fil20" points="354.32,67.05 362.89,67.05 362.89,1392.46 354.32,1392.46 "/>
    <polygon id="_63" class="fil20" points="360.04,67.05 368.61,67.05 368.61,1392.46 360.04,1392.46 "/>
    <polygon id="_64" class="fil20" points="365.75,67.05 374.32,67.05 374.32,1392.46 365.75,1392.46 "/>
    <polygon id="_65" class="fil21" points="371.46,67.05 380.04,67.05 380.04,1392.46 371.46,1392.46 "/>
    <polygon id="_66" class="fil21" points="377.18,67.05 385.75,67.05 385.75,1392.46 377.18,1392.46 "/>
    <polygon id="_67" class="fil21" points="382.89,67.05 391.47,67.05 391.47,1392.46 382.89,1392.46 "/>
    <polygon id="_68" class="fil21" points="388.61,67.05 397.18,67.05 397.18,1392.46 388.61,1392.46 "/>
    <polygon id="_69" class="fil21" points="394.32,67.05 402.9,67.05 402.9,1392.46 394.32,1392.46 "/>
    <polygon id="_70" class="fil22" points="400.04,67.05 408.61,67.05 408.61,1392.46 400.04,1392.46 "/>
    <polygon id="_71" class="fil23" points="405.75,67.05 414.33,67.05 414.33,1392.46 405.75,1392.46 "/>
    <polygon id="_72" class="fil23" points="411.47,67.05 420.04,67.05 420.04,1392.46 411.47,1392.46 "/>
    <polygon id="_73" class="fil23" points="417.18,67.05 425.76,67.05 425.76,1392.46 417.18,1392.46 "/>
    <polygon id="_74" class="fil23" points="422.9,67.05 431.47,67.05 431.47,1392.46 422.9,1392.46 "/>
    <polygon id="_75" class="fil24" points="428.61,67.05 437.19,67.05 437.19,1392.46 428.61,1392.46 "/>
    <polygon id="_76" class="fil24" points="434.33,67.05 442.9,67.05 442.9,1392.46 434.33,1392.46 "/>
    <polygon id="_77" class="fil24" points="440.04,67.05 448.61,67.05 448.61,1392.46 440.04,1392.46 "/>
    <polygon id="_78" class="fil24" points="445.76,67.05 454.33,67.05 454.33,1392.46 445.76,1392.46 "/>
    <polygon id="_79" class="fil24" points="451.47,67.05 460.04,67.05 460.04,1392.46 451.47,1392.46 "/>
    <polygon id="_80" class="fil25" points="457.19,67.05 465.76,67.05 465.76,1392.46 457.19,1392.46 "/>
    <polygon id="_81" class="fil26" points="462.9,67.05 471.47,67.05 471.47,1392.46 462.9,1392.46 "/>
    <polygon id="_82" class="fil26" points="468.62,67.05 477.19,67.05 477.19,1392.46 468.62,1392.46 "/>
    <polygon id="_83" class="fil26" points="474.33,67.05 482.9,67.05 482.9,1392.46 474.33,1392.46 "/>
    <polygon id="_84" class="fil26" points="480.05,67.05 488.62,67.05 488.62,1392.46 480.05,1392.46 "/>
    <polygon id="_85" class="fil27" points="485.76,67.05 494.33,67.05 494.33,1392.46 485.76,1392.46 "/>
    <polygon id="_86" class="fil27" points="491.48,67.05 500.05,67.05 500.05,1392.46 491.48,1392.46 "/>
    <polygon id="_87" class="fil27" points="497.19,67.05 505.76,67.05 505.76,1392.46 497.19,1392.46 "/>
    <polygon id="_88" class="fil27" points="502.91,67.05 511.48,67.05 511.48,1392.46 502.91,1392.46 "/>
    <polygon id="_89" class="fil27" points="508.62,67.05 517.19,67.05 517.19,1392.46 508.62,1392.46 "/>
    <polygon id="_90" class="fil28" points="514.34,67.05 522.91,67.05 522.91,1392.46 514.34,1392.46 "/>
    <polygon id="_91" class="fil28" points="520.05,67.05 528.62,67.05 528.62,1392.46 520.05,1392.46 "/>
    <polygon id="_92" class="fil28" points="525.77,67.05 534.34,67.05 534.34,1392.46 525.77,1392.46 "/>
    <polygon id="_93" class="fil28" points="531.48,67.05 540.05,67.05 540.05,1392.46 531.48,1392.46 "/>
    <polygon id="_94" class="fil29" points="537.2,67.05 545.77,67.05 545.77,1392.46 537.2,1392.46 "/>
    <polygon id="_95" class="fil29" points="542.91,67.05 551.48,67.05 551.48,1392.46 542.91,1392.46 "/>
    <polygon id="_96" class="fil29" points="548.63,67.05 557.2,67.05 557.2,1392.46 548.63,1392.46 "/>
    <polygon id="_97" class="fil29" points="554.34,67.05 562.91,67.05 562.91,1392.46 554.34,1392.46 "/>
    <polygon id="_98" class="fil29" points="560.05,67.05 568.63,67.05 568.63,1392.46 560.05,1392.46 "/>
    <polygon id="_99" class="fil30" points="565.77,67.05 574.34,67.05 574.34,1392.46 565.77,1392.46 "/>
    <polygon id="_100" class="fil31" points="571.48,67.05 580.06,67.05 580.06,1392.46 571.48,1392.46 "/>
    <polygon id="_101" class="fil31" points="577.2,67.05 585.77,67.05 585.77,1392.46 577.2,1392.46 "/>
    <polygon id="_102" class="fil31" points="582.91,67.05 591.49,67.05 591.49,1392.46 582.91,1392.46 "/>
    <polygon id="_103" class="fil31" points="588.63,67.05 597.2,67.05 597.2,1392.46 588.63,1392.46 "/>
    <polygon id="_104" class="fil32" points="594.34,67.05 602.92,67.05 602.92,1392.46 594.34,1392.46 "/>
    <polygon id="_105" class="fil32" points="600.06,67.05 608.63,67.05 608.63,1392.46 600.06,1392.46 "/>
    <polygon id="_106" class="fil32" points="605.77,67.05 614.35,67.05 614.35,1392.46 605.77,1392.46 "/>
    <polygon id="_107" class="fil32" points="611.49,67.05 620.06,67.05 620.06,1392.46 611.49,1392.46 "/>
    <polygon id="_108" class="fil32" points="617.2,67.05 625.78,67.05 625.78,1392.46 617.2,1392.46 "/>
    <polygon id="_109" class="fil33" points="622.92,67.05 631.49,67.05 631.49,1392.46 622.92,1392.46 "/>
    <polygon id="_110" class="fil33" points="628.63,67.05 637.2,67.05 637.2,1392.46 628.63,1392.46 "/>
    <polygon id="_111" class="fil33" points="634.35,67.05 642.92,67.05 642.92,1392.46 634.35,1392.46 "/>
    <polygon id="_112" class="fil33" points="640.06,67.05 648.63,67.05 648.63,1392.46 640.06,1392.46 "/>
    <polygon id="_113" class="fil33" points="645.78,67.05 654.35,67.05 654.35,1392.46 645.78,1392.46 "/>
    <polygon id="_114" class="fil34" points="651.49,67.05 660.06,67.05 660.06,1392.46 651.49,1392.46 "/>
    <polygon id="_115" class="fil34" points="657.21,67.05 665.78,67.05 665.78,1392.46 657.21,1392.46 "/>
    <polygon id="_116" class="fil34" points="662.92,67.05 671.49,67.05 671.49,1392.46 662.92,1392.46 "/>
    <polygon id="_117" class="fil34" points="668.64,67.05 677.21,67.05 677.21,1392.46 668.64,1392.46 "/>
    <polygon id="_118" class="fil35" points="674.35,67.05 682.92,67.05 682.92,1392.46 674.35,1392.46 "/>
    <polygon id="_119" class="fil36" points="680.07,67.05 688.64,67.05 688.64,1392.46 680.07,1392.46 "/>
    <polygon id="_120" class="fil36" points="685.78,67.05 694.35,67.05 694.35,1392.46 685.78,1392.46 "/>
    <polygon id="_121" class="fil36" points="691.5,67.05 700.07,67.05 700.07,1392.46 691.5,1392.46 "/>
    <polygon id="_122" class="fil36" points="697.21,67.05 705.78,67.05 705.78,1392.46 697.21,1392.46 "/>
    <polygon id="_123" class="fil37" points="702.93,67.05 711.5,67.05 711.5,1392.46 702.93,1392.46 "/>
    <polygon id="_124" class="fil37" points="708.64,67.05 717.21,67.05 717.21,1392.46 708.64,1392.46 "/>
    <polygon id="_125" class="fil37" points="714.35,67.05 722.93,67.05 722.93,1392.46 714.35,1392.46 "/>
    <polygon id="_126" class="fil37" points="720.07,67.05 728.64,67.05 728.64,1392.46 720.07,1392.46 "/>
    <polygon id="_127" class="fil37" points="725.78,67.05 734.36,67.05 734.36,1392.46 725.78,1392.46 "/>
    <polygon id="_128" class="fil38" points="731.5,67.05 740.07,67.05 740.07,1392.46 731.5,1392.46 "/>
    <polygon id="_129" class="fil38" points="737.22,67.05 745.79,67.05 745.79,1392.46 737.22,1392.46 "/>
    <polygon id="_130" class="fil38" points="742.93,67.05 751.5,67.05 751.5,1392.46 742.93,1392.46 "/>
    <polygon id="_131" class="fil38" points="748.65,67.05 757.22,67.05 757.22,1392.46 748.65,1392.46 "/>
    <polygon id="_132" class="fil38" points="754.36,67.05 762.93,67.05 762.93,1392.46 754.36,1392.46 "/>
    <polygon id="_133" class="fil39" points="760.07,67.05 768.65,67.05 768.65,1392.46 760.07,1392.46 "/>
    <polygon id="_134" class="fil39" points="765.79,67.05 774.36,67.05 774.36,1392.46 765.79,1392.46 "/>
    <polygon id="_135" class="fil39" points="771.5,67.05 780.08,67.05 780.08,1392.46 771.5,1392.46 "/>
    <polygon id="_136" class="fil39" points="777.22,67.05 785.79,67.05 785.79,1392.46 777.22,1392.46 "/>
    <polygon id="_137" class="fil40" points="782.93,67.05 791.51,67.05 791.51,1392.46 782.93,1392.46 "/>
    <polygon id="_138" class="fil41" points="788.65,67.05 797.22,67.05 797.22,1392.46 788.65,1392.46 "/>
    <polygon id="_139" class="fil41" points="794.36,67.05 802.94,67.05 802.94,1392.46 794.36,1392.46 "/>
    <polygon id="_140" class="fil41" points="800.08,67.05 808.65,67.05 808.65,1392.46 800.08,1392.46 "/>
    <polygon id="_141" class="fil41" points="805.79,67.05 814.37,67.05 814.37,1392.46 805.79,1392.46 "/>
    <polygon id="_142" class="fil42" points="811.51,67.05 820.08,67.05 820.08,1392.46 811.51,1392.46 "/>
    <polygon id="_143" class="fil42" points="817.22,67.05 825.8,67.05 825.8,1392.46 817.22,1392.46 "/>
    <polygon id="_144" class="fil42" points="822.94,67.05 831.51,67.05 831.51,1392.46 822.94,1392.46 "/>
    <polygon id="_145" class="fil42" points="828.65,67.05 837.22,67.05 837.22,1392.46 828.65,1392.46 "/>
    <polygon id="_146" class="fil42" points="834.37,67.05 842.94,67.05 842.94,1392.46 834.37,1392.46 "/>
    <polygon id="_147" class="fil43" points="840.08,67.05 848.65,67.05 848.65,1392.46 840.08,1392.46 "/>
    <polygon id="_148" class="fil43" points="845.8,67.05 854.37,67.05 854.37,1392.46 845.8,1392.46 "/>
    <polygon id="_149" class="fil43" points="851.51,67.05 860.08,67.05 860.08,1392.46 851.51,1392.46 "/>
    <polygon id="_150" class="fil43" points="857.23,67.05 865.8,67.05 865.8,1392.46 857.23,1392.46 "/>
    <polygon id="_151" class="fil43" points="862.94,67.05 871.51,67.05 871.51,1392.46 862.94,1392.46 "/>
    <polygon id="_152" class="fil44" points="868.66,67.05 877.23,67.05 877.23,1392.46 868.66,1392.46 "/>
    <polygon id="_153" class="fil44" points="874.37,67.05 882.94,67.05 882.94,1392.46 874.37,1392.46 "/>
    <polygon id="_154" class="fil44" points="880.09,67.05 888.66,67.05 888.66,1392.46 880.09,1392.46 "/>
    <polygon id="_155" class="fil44" points="885.8,67.05 894.37,67.05 894.37,1392.46 885.8,1392.46 "/>
    <polygon id="_156" class="fil45" points="891.52,67.05 900.09,67.05 900.09,1392.46 891.52,1392.46 "/>
    <polygon id="_157" class="fil46" points="897.23,67.05 905.8,67.05 905.8,1392.46 897.23,1392.46 "/>
    <polygon id="_158" class="fil46" points="902.95,67.05 911.52,67.05 911.52,1392.46 902.95,1392.46 "/>
    <polygon id="_159" class="fil46" points="908.66,67.05 917.23,67.05 917.23,1392.46 908.66,1392.46 "/>
    <polygon id="_160" class="fil46" points="914.37,67.05 922.95,67.05 922.95,1392.46 914.37,1392.46 "/>
    <polygon id="_161" class="fil46" points="920.09,67.05 928.66,67.05 928.66,1392.46 920.09,1392.46 "/>
    <polygon id="_162" class="fil47" points="925.8,67.05 934.38,67.05 934.38,1392.46 925.8,1392.46 "/>
    <polygon id="_163" class="fil47" points="931.52,67.05 940.09,67.05 940.09,1392.46 931.52,1392.46 "/>
    <polygon id="_164" class="fil47" points="937.23,67.05 945.81,67.05 945.81,1392.46 937.23,1392.46 "/>
    <polygon id="_165" class="fil47" points="942.95,67.05 951.52,67.05 951.52,1392.46 942.95,1392.46 "/>
    <polygon id="_166" class="fil48" points="948.66,67.05 957.24,67.05 957.24,1392.46 948.66,1392.46 "/>
    <polygon id="_167" class="fil48" points="954.38,67.05 962.95,67.05 962.95,1392.46 954.38,1392.46 "/>
    <polygon id="_168" class="fil48" points="960.09,67.05 968.67,67.05 968.67,1392.46 960.09,1392.46 "/>
    <polygon id="_169" class="fil48" points="965.81,67.05 974.38,67.05 974.38,1392.46 965.81,1392.46 "/>
    <polygon id="_170" class="fil48" points="971.52,67.05 980.1,67.05 980.1,1392.46 971.52,1392.46 "/>
    <polygon id="_171" class="fil49" points="977.24,67.05 985.81,67.05 985.81,1392.46 977.24,1392.46 "/>
    <polygon id="_172" class="fil49" points="982.95,67.05 991.53,67.05 991.53,1392.46 982.95,1392.46 "/>
    <polygon id="_173" class="fil49" points="988.67,67.05 997.24,67.05 997.24,1392.46 988.67,1392.46 "/>
    <polygon id="_174" class="fil49" points="994.38,67.05 1002.96,67.05 1002.96,1392.46 994.38,1392.46 "/>
    <polygon id="_175" class="fil50" points="1000.1,67.05 1008.67,67.05 1008.67,1392.46 1000.1,1392.46 "/>
    <polygon id="_176" class="fil51" points="1005.81,67.05 1014.39,67.05 1014.39,1392.46 1005.81,1392.46 "/>
    <polygon id="_177" class="fil51" points="1011.53,67.05 1020.1,67.05 1020.1,1392.46 1011.53,1392.46 "/>
    <polygon id="_178" class="fil51" points="1017.24,67.05 1025.81,67.05 1025.81,1392.46 1017.24,1392.46 "/>
    <polygon id="_179" class="fil51" points="1022.96,67.05 1031.53,67.05 1031.53,1392.46 1022.96,1392.46 "/>
    <polygon id="_180" class="fil51" points="1028.67,67.05 1037.24,67.05 1037.24,1392.46 1028.67,1392.46 "/>
    <polygon id="_181" class="fil52" points="1034.39,67.05 1042.96,67.05 1042.96,1392.46 1034.39,1392.46 "/>
    <polygon id="_182" class="fil52" points="1040.1,67.05 1048.67,67.05 1048.67,1392.46 1040.1,1392.46 "/>
    <polygon id="_183" class="fil52" points="1045.82,67.05 1054.39,67.05 1054.39,1392.46 1045.82,1392.46 "/>
    <polygon id="_184" class="fil52" points="1051.53,67.05 1060.1,67.05 1060.1,1392.46 1051.53,1392.46 "/>
    <polygon id="_185" class="fil53" points="1057.25,67.05 1065.82,67.05 1065.82,1392.46 1057.25,1392.46 "/>
    <polygon id="_186" class="fil54" points="1062.96,67.05 1071.53,67.05 1071.53,1392.46 1062.96,1392.46 "/>
    <polygon id="_187" class="fil54" points="1068.68,67.05 1077.25,67.05 1077.25,1392.46 1068.68,1392.46 "/>
    <polygon id="_188" class="fil54" points="1074.39,67.05 1082.96,67.05 1082.96,1392.46 1074.39,1392.46 "/>
    <polygon id="_189" class="fil54" points="1080.11,67.05 1088.68,67.05 1088.68,1392.46 1080.11,1392.46 "/>
    <polygon id="_190" class="fil54" points="1085.82,67.05 1094.39,67.05 1094.39,1392.46 1085.82,1392.46 "/>
    <polygon id="_191" class="fil55" points="1091.54,67.05 1100.11,67.05 1100.11,1392.46 1091.54,1392.46 "/>
    <polygon id="_192" class="fil55" points="1097.25,67.05 1105.82,67.05 1105.82,1392.46 1097.25,1392.46 "/>
    <polygon id="_193" class="fil55" points="1102.96,67.05 1111.54,67.05 1111.54,1392.46 1102.96,1392.46 "/>
    <polygon id="_194" class="fil56" points="1108.68,67.05 1117.25,67.05 1117.25,1392.46 1108.68,1392.46 "/>
    <polygon id="_195" class="fil57" points="1114.39,67.05 1122.97,67.05 1122.97,1392.46 1114.39,1392.46 "/>
    <polygon id="_196" class="fil57" points="1120.11,67.05 1128.68,67.05 1128.68,1392.46 1120.11,1392.46 "/>
    <polygon id="_197" class="fil57" points="1125.82,67.05 1134.4,67.05 1134.4,1392.46 1125.82,1392.46 "/>
    <polygon id="_198" class="fil57" points="1131.54,67.05 1140.11,67.05 1140.11,1392.46 1131.54,1392.46 "/>
    <polygon id="_199" class="fil57" points="1137.25,67.05 1145.83,67.05 1145.83,1392.46 1137.25,1392.46 "/>
    <polygon id="_200" class="fil58" points="1142.97,67.05 1151.54,67.05 1151.54,1392.46 1142.97,1392.46 "/>
    <polygon id="_201" class="fil58" points="1148.68,67.05 1157.26,67.05 1157.26,1392.46 1148.68,1392.46 "/>
    <polygon id="_202" class="fil58" points="1154.4,67.05 1162.97,67.05 1162.97,1392.46 1154.4,1392.46 "/>
    <polygon id="_203" class="fil58" points="1160.11,67.05 1168.69,67.05 1168.69,1392.46 1160.11,1392.46 "/>
    <polygon id="_204" class="fil59" points="1165.83,67.05 1174.4,67.05 1174.4,1392.46 1165.83,1392.46 "/>
    <polygon id="_205" class="fil60" points="1171.54,67.05 1180.11,67.05 1180.11,1392.46 1171.54,1392.46 "/>
    <polygon id="_206" class="fil60" points="1177.26,67.05 1185.83,67.05 1185.83,1392.46 1177.26,1392.46 "/>
    <polygon id="_207" class="fil60" points="1182.97,67.05 1191.54,67.05 1191.54,1392.46 1182.97,1392.46 "/>
    <polygon id="_208" class="fil60" points="1188.69,67.05 1197.26,67.05 1197.26,1392.46 1188.69,1392.46 "/>
    <polygon id="_209" class="fil60" points="1194.4,67.05 1202.97,67.05 1202.97,1392.46 1194.4,1392.46 "/>
    <polygon id="_210" class="fil61" points="1200.12,67.05 1208.69,67.05 1208.69,1392.46 1200.12,1392.46 "/>
    <polygon id="_211" class="fil61" points="1205.83,67.05 1214.4,67.05 1214.4,1392.46 1205.83,1392.46 "/>
    <polygon id="_212" class="fil61" points="1211.55,67.05 1220.12,67.05 1220.12,1392.46 1211.55,1392.46 "/>
    <polygon id="_213" class="fil62" points="1217.26,67.05 1225.83,67.05 1225.83,1392.46 1217.26,1392.46 "/>
    <polygon id="_214" class="fil62" points="1222.98,67.05 1231.55,67.05 1231.55,1392.46 1222.98,1392.46 "/>
    <polygon id="_215" class="fil63" points="1228.69,67.05 1237.26,67.05 1237.26,1392.46 1228.69,1392.46 "/>
    <polygon id="_216" class="fil63" points="1234.41,67.05 1242.98,67.05 1242.98,1392.46 1234.41,1392.46 "/>
    <polygon id="_217" class="fil63" points="1240.12,67.05 1248.69,67.05 1248.69,1392.46 1240.12,1392.46 "/>
    <polygon id="_218" class="fil63" points="1245.84,67.05 1254.41,67.05 1254.41,1392.46 1245.84,1392.46 "/>
    <polygon id="_219" class="fil64" points="1251.55,67.05 1260.12,67.05 1260.12,1392.46 1251.55,1392.46 "/>
    <polygon id="_220" class="fil64" points="1257.27,67.05 1265.84,67.05 1265.84,1392.46 1257.27,1392.46 "/>
    <polygon id="_221" class="fil64" points="1262.98,67.05 1271.55,67.05 1271.55,1392.46 1262.98,1392.46 "/>
    <polygon id="_222" class="fil65" points="1268.7,67.05 1277.27,67.05 1277.27,1392.46 1268.7,1392.46 "/>
    <polygon id="_223" class="fil65" points="1274.41,67.05 1282.98,67.05 1282.98,1392.46 1274.41,1392.46 "/>
    <polygon id="_224" class="fil66" points="1280.13,67.05 1288.7,67.05 1288.7,1392.46 1280.13,1392.46 "/>
    <polygon id="_225" class="fil66" points="1285.84,67.05 1294.41,67.05 1294.41,1392.46 1285.84,1392.46 "/>
    <polygon id="_226" class="fil66" points="1291.55,67.05 1300.13,67.05 1300.13,1392.46 1291.55,1392.46 "/>
    <polygon id="_227" class="fil66" points="1297.27,67.05 1305.84,67.05 1305.84,1392.46 1297.27,1392.46 "/>
    <polygon id="_228" class="fil66" points="1302.98,67.05 1311.56,67.05 1311.56,1392.46 1302.98,1392.46 "/>
    <polygon id="_229" class="fil67" points="1308.7,67.05 1317.27,67.05 1317.27,1392.46 1308.7,1392.46 "/>
    <polygon id="_230" class="fil67" points="1314.41,67.05 1322.99,67.05 1322.99,1392.46 1314.41,1392.46 "/>
    <polygon id="_231" class="fil67" points="1320.13,67.05 1328.7,67.05 1328.7,1392.46 1320.13,1392.46 "/>
    <polygon id="_232" class="fil68" points="1325.84,67.05 1334.42,67.05 1334.42,1392.46 1325.84,1392.46 "/>
    <polygon id="_233" class="fil68" points="1331.56,67.05 1340.13,67.05 1340.13,1392.46 1331.56,1392.46 "/>
    <polygon id="_234" class="fil69" points="1337.27,67.05 1345.85,67.05 1345.85,1392.46 1337.27,1392.46 "/>
    <polygon id="_235" class="fil69" points="1342.99,67.05 1351.56,67.05 1351.56,1392.46 1342.99,1392.46 "/>
    <polygon id="_236" class="fil69" points="1348.7,67.05 1357.28,67.05 1357.28,1392.46 1348.7,1392.46 "/>
    <polygon id="_237" class="fil69" points="1354.42,67.05 1362.99,67.05 1362.99,1392.46 1354.42,1392.46 "/>
    <polygon id="_238" class="fil69" points="1360.13,67.05 1368.7,67.05 1368.7,1392.46 1360.13,1392.46 "/>
    <polygon id="_239" class="fil70" points="1365.85,67.05 1374.42,67.05 1374.42,1392.46 1365.85,1392.46 "/>
    <polygon id="_240" class="fil70" points="1371.56,67.05 1380.13,67.05 1380.13,1392.46 1371.56,1392.46 "/>
    <polygon id="_241" class="fil71" points="1377.28,67.05 1385.85,67.05 1385.85,1392.46 1377.28,1392.46 "/>
    <polygon id="_242" class="fil71" points="1382.99,67.05 1391.56,67.05 1391.56,1392.46 1382.99,1392.46 "/>
    <polygon id="_243" class="fil72" points="1388.71,67.05 1397.28,67.05 1397.28,1392.46 1388.71,1392.46 "/>
    <polygon id="_244" class="fil72" points="1394.42,67.05 1402.99,67.05 1402.99,1392.46 1394.42,1392.46 "/>
    <polygon id="_245" class="fil72" points="1400.14,67.05 1408.71,67.05 1408.71,1392.46 1400.14,1392.46 "/>
    <polygon id="_246" class="fil72" points="1405.85,67.05 1414.42,67.05 1414.42,1392.46 1405.85,1392.46 "/>
    <polygon id="_247" class="fil72" points="1411.57,67.05 1420.14,67.05 1420.14,1392.46 1411.57,1392.46 "/>
    <polygon id="_248" class="fil73" points="1417.28,67.05 1425.85,67.05 1425.85,1392.46 1417.28,1392.46 "/>
    <polygon id="_249" class="fil73" points="1423,67.05 1431.57,67.05 1431.57,1392.46 1423,1392.46 "/>
    <polygon id="_250" class="fil73" points="1428.71,67.05 1437.28,67.05 1437.28,1392.46 1428.71,1392.46 "/>
    <polygon id="_251" class="fil74" points="1434.43,67.05 1443,67.05 1443,1392.46 1434.43,1392.46 "/>
    <polygon id="_252" class="fil74" points="1440.14,67.05 1448.71,67.05 1448.71,1392.46 1440.14,1392.46 "/>
    <polygon id="_253" class="fil75" points="1445.85,67.05 1454.43,67.05 1454.43,1392.46 1445.85,1392.46 "/>
    <polygon id="_254" class="fil75" points="1451.57,67.05 1460.14,67.05 1460.14,1392.46 1451.57,1392.46 "/>
    <polygon id="_255" class="fil76" points="1457.28,67.05 1465.86,67.05 1465.86,1392.46 1457.28,1392.46 "/>
    <polygon id="_256" class="fil75" points="1463,67.05 1471.57,67.05 1471.57,1392.46 1463,1392.46 "/>
    <polygon id="_257" class="fil75" points="1468.72,67.05 1477.29,67.05 1477.29,1392.46 1468.72,1392.46 "/>
    <polygon id="_258" class="fil74" points="1474.43,67.05 1483,67.05 1483,1392.46 1474.43,1392.46 "/>
    <polygon id="_259" class="fil74" points="1480.15,67.05 1488.72,67.05 1488.72,1392.46 1480.15,1392.46 "/>
    <polygon id="_260" class="fil73" points="1485.86,67.05 1494.43,67.05 1494.43,1392.46 1485.86,1392.46 "/>
    <polygon id="_261" class="fil73" points="1491.57,67.05 1488.83,67.05 1488.83,1392.46 1491.57,1392.46 "/>
   </g>
   <path id="_262" class="fil77 str0" d="M0 1086.11c27.47,-18.82 54.26,-44.36 60.86,-187.09 15.99,-345.88 227.72,-737.66 566.28,-799.13 228.28,-32.84 421.52,34.67 614.13,130.03 57.45,28.44 137.82,3.57 198.04,25.01 1.43,28.88 -27.95,45.95 -43.52,76.96 -18.55,36.94 -24.4,88.13 -30.49,126.08 -10.7,66.61 32.77,133.23 56.01,189.04 67.52,162.1 39.3,237.32 10.74,346 -77.48,166.17 -216.38,289.63 -478.84,358.16 -182.79,41.29 -391.61,33.77 -698.15,-157.04 -58.52,-63.6 -124.38,-119.55 -255.06,-108.02z"/>
  </g>
  <path class="fil78 str0" d="M739.16 396.96c46.92,-80.33 51.12,-160.05 3,-239.06 -18.38,14 -40.09,21.93 -65.01,24.01 -151.93,-18.22 -265.2,42.36 -345.08,171.04 -28.72,32.16 -43.15,96.85 -49.01,181.04 -4.23,52.27 -36.88,84.79 -93.02,101.02 40.9,8.42 63.92,30.57 67.02,68.01 3.33,64.35 -5.64,162.41 10,193.05 42.08,103.13 102.1,190.46 192.04,258.05 129.7,67.68 250.63,63.92 369.08,40.01 78.85,-18.82 156.89,-46.16 220.05,-109.02 34.67,-27.67 66.35,-58.35 101.02,-86.02 -155.58,-128.46 -172.41,-131.72 -333.07,-188.04 -23.57,91.66 -83.23,121.59 -149.03,141.03 -64.59,12.37 -120.47,1.8 -169.04,-28.01 -49.85,-30.85 -69.66,-80.15 -69.02,-142.03 4.67,-26.34 9.34,-52.68 14.01,-79.02 11.59,-37.05 34.23,-54.94 66.01,-57.01 -39.25,-14.91 -64.95,-41.42 -73.01,-83.02 4.51,-49.21 19.7,-93.3 44.01,-133.03 25.28,-38.19 55.37,-63.4 89.01,-79.01 77.09,-22.95 132.92,-6.01 170.04,46.01z"/>
  <path id="L" class="fil78 str0" d="M791.17 397.96c58.4,-71.12 154.09,-95.26 277.06,-85.02 -82.36,129.78 -113.21,257.67 -131.02,385.08 241.33,69.14 308.4,117.11 402.08,89.02 -14.09,57.24 -55.58,107.09 -145.03,144.03 -96.39,-92.7 -207.91,-161.5 -348.07,-185.04 36.78,-137.35 74.06,-274.9 -55.02,-348.07z"/>
  <path id="A0" class="fil78 str1" d="M772.17 824.05c-70.36,-18.17 -100.57,-74.69 -88.02,-172.04 -32.39,9.14 -63.92,9.24 -94.02,-6 -0.05,115.9 -42.01,175.99 -105.02,208.05 12.34,21.76 28.56,39.87 49.01,54.01 56.71,-76.53 116.06,-89.38 179.04,-14 23.42,-20.06 43.05,-43.43 59.01,-70.02zm-138.17 -99.53c-0.69,34.35 6.56,65.7 23.14,93.53 -16.69,-18.77 -41.33,-23.41 -75.01,-12 31.94,-11.44 50,-37.8 51.87,-81.53zm0.14 -4.49c-0.03,1.52 -0.07,3.01 -0.14,4.49 0.03,-1.49 0.08,-2.99 0.14,-4.49z"/>
  <path id="A1" class="fil79 str1" d="M1053.23 462.97c-50.22,76.7 -79.38,149.72 -70.02,216.05 29.48,13 57.82,27.4 85.02,35.01 1.48,0.16 -10.76,-18.16 -19,-33.01 -7,-12.61 -9.25,-26.14 -8,-26.01 1.96,0.21 2.86,-15.32 11,-21 11.17,-7.79 28.7,-5.87 35.01,0 18.57,17.28 18.06,80.15 26,81.02 51.83,18.12 105.05,29.41 161.04,27 -87.24,-65.85 -175.75,-131.08 -131.03,-263.06 -24.5,-10.34 -53.53,-16.52 -90.02,-16zm-16 139.03c1.29,-31.81 13.52,-53.55 38.01,-64.01 21.08,14.94 25,37.74 17,66.01 -14.72,-22 -32.34,-26.86 -55.01,-2z"/>
 </g>
</svg>
